<svg width="22" height="30" viewBox="0 0 22 30" fill="none" xmlns="http://www.w3.org/2000/svg">
<path d="M18.4302 3.07741C16.4458 1.09301 13.8073 0 11.001 0C8.19428 0 5.55626 1.09301 3.57186 3.07741C-0.100545 6.74927 -0.556925 13.658 2.58349 17.8437L11.001 30L19.406 17.8607C22.559 13.658 22.1026 6.74927 18.4302 3.07741ZM18.5173 17.2203L11.001 28.0748L3.4727 17.2033C0.624294 13.4054 1.03246 7.16621 4.3471 3.85211C6.12441 2.0748 8.48739 1.09575 11.001 1.09575C13.5147 1.09575 15.8777 2.0748 17.6555 3.85211C20.9702 7.16621 21.3783 13.4054 18.5173 17.2203Z" fill="#D1A954"/>
</svg>
