<svg width="22" height="16" viewBox="0 0 22 16" fill="none" xmlns="http://www.w3.org/2000/svg">
<path d="M20.2265 15.8196H1.77351C0.79595 15.8196 0 15.0244 0 14.0461V1.95295C0 0.974684 0.79595 0.179443 1.77351 0.179443H20.2265C21.2041 0.179443 22 0.974684 22 1.95295V14.0461C22 15.0244 21.2041 15.8196 20.2265 15.8196ZM1.77351 0.888846C1.18683 0.888846 0.709403 1.36627 0.709403 1.95295V14.0461C0.709403 14.6328 1.18683 15.1102 1.77351 15.1102H20.2265C20.8132 15.1102 21.2906 14.6328 21.2906 14.0461V1.95295C21.2906 1.36627 20.8132 0.888846 20.2265 0.888846H1.77351Z" fill="#D1A954"/>
</svg>
