<svg width="20" height="30" viewBox="0 0 20 30" fill="none" xmlns="http://www.w3.org/2000/svg">
<path d="M17.7627 0H2.23709C1.18978 0 0.33783 0.852011 0.33783 1.89932V28.1007C0.33783 29.148 1.18984 30.0001 2.23715 30.0001H17.7627C18.81 30.0001 19.662 29.1481 19.662 28.1007V1.89932C19.6619 0.852011 18.81 0 17.7627 0ZM1.28958 4.77375H18.7102V24.6138H1.28958V4.77375ZM2.23709 0.951755H17.7627C18.2851 0.951755 18.7102 1.37681 18.7102 1.89932V4.13924H1.28958V1.89932C1.28958 1.37681 1.71464 0.951755 2.23709 0.951755ZM17.7627 29.0482H2.23709C1.71464 29.0482 1.28952 28.6232 1.28952 28.1007V25.2483H18.7102V28.1007C18.7102 28.6232 18.2851 29.0482 17.7627 29.0482Z" fill="#D1A954"/>
</svg>
